<svg xmlns="http://www.w3.org/2000/svg" x="0px" y="0px" width="100" height="100" viewBox="0 0 5000 5000">
<circle cx="2499.995" cy="2499.999" r="745.661" fill="#fff"></circle><path fill="#491775" d="M2499.989,3279.475c-429.806,0-779.486-349.669-779.486-779.475s349.68-779.486,779.486-779.486 s779.486,349.68,779.486,779.486S2929.795,3279.475,2499.989,3279.475z M2499.989,1788.155 c-392.507,0-711.845,319.327-711.845,711.845c0,392.507,319.338,711.834,711.845,711.834s711.845-319.327,711.845-711.834 C3211.834,2107.482,2892.496,1788.155,2499.989,1788.155z"></path><path fill="#fff" d="M2499.995,1754.337v-447.397V1754.337z"></path><path fill="#491775" d="M2499.989,1788.155c-18.672,0-33.821-15.138-33.821-33.821v-447.399 c0-18.683,15.149-33.821,33.821-33.821s33.821,15.138,33.821,33.821v447.399 C2533.81,1773.017,2518.661,1788.155,2499.989,1788.155z"></path><g><circle cx="2499.995" cy="1132.953" r="149.132" fill="#ffce87"></circle><path fill="#491775" d="M2499.989,1315.908c-100.89,0-182.954-82.075-182.954-182.954 c0-100.879,82.064-182.954,182.954-182.954s182.954,82.075,182.954,182.954 C2682.943,1233.833,2600.879,1315.908,2499.989,1315.908z M2499.989,1017.642c-63.59,0-115.312,51.733-115.312,115.312 c0,63.579,51.722,115.312,115.312,115.312c63.59,0,115.312-51.733,115.312-115.312 C2615.301,1069.375,2563.579,1017.642,2499.989,1017.642z"></path></g><g><path fill="#fff" d="M2499.995,3245.66v447.397V3245.66z"></path><path fill="#491775" d="M2499.989,3726.875c-18.672,0-33.821-15.149-33.821-33.821v-447.399 c0-18.672,15.149-33.821,33.821-33.821s33.821,15.149,33.821,33.821v447.399 C2533.81,3711.726,2518.661,3726.875,2499.989,3726.875z"></path><g><circle cx="2499.995" cy="3867.044" r="149.132" fill="#ff8e9d"></circle><path fill="#491775" d="M2499.989,4050c-100.89,0-182.954-82.064-182.954-182.954 c0-100.89,82.064-182.954,182.954-182.954s182.954,82.064,182.954,182.954C2682.943,3967.936,2600.879,4050,2499.989,4050z M2499.989,3751.734c-63.59,0-115.312,51.722-115.312,115.312c0,63.59,51.722,115.312,115.312,115.312 c63.59,0,115.312-51.722,115.312-115.312C2615.301,3803.456,2563.579,3751.734,2499.989,3751.734z"></path></g></g><g><path fill="#fff" d="M3245.656,2499.999h447.397H3245.656z"></path><path fill="#491775" d="M3693.054,2533.821h-447.399c-18.672,0-33.821-15.138-33.821-33.821 s15.149-33.821,33.821-33.821h447.399c18.672,0,33.821,15.138,33.821,33.821S3711.726,2533.821,3693.054,2533.821z"></path><g><circle cx="3867.041" cy="2499.999" r="149.132" fill="#ffce87"></circle><path fill="#491775" d="M3867.046,2682.954c-100.89,0-182.954-82.075-182.954-182.954s82.064-182.954,182.954-182.954 c100.89,0,182.954,82.075,182.954,182.954S3967.936,2682.954,3867.046,2682.954z M3867.046,2384.688 c-63.59,0-115.312,51.733-115.312,115.312s51.722,115.312,115.312,115.312c63.59,0,115.312-51.733,115.312-115.312 S3930.636,2384.688,3867.046,2384.688z"></path></g><g><path fill="#fff" d="M1754.334,2499.999h-447.397H1754.334z"></path><path fill="#491775" d="M1754.323,2533.821h-447.377c-18.672,0-33.821-15.138-33.821-33.821 s15.149-33.821,33.821-33.821h447.377c18.672,0,33.821,15.138,33.821,33.821S1772.995,2533.821,1754.323,2533.821z"></path><g><circle cx="1132.95" cy="2499.999" r="149.132" fill="#ffce87"></circle><path fill="#491775" d="M1132.954,2682.954C1032.064,2682.954,950,2600.879,950,2500s82.064-182.954,182.954-182.954 c100.89,0,182.954,82.075,182.954,182.954S1233.844,2682.954,1132.954,2682.954z M1132.954,2384.688 c-63.59,0-115.312,51.733-115.312,115.312s51.722,115.312,115.312,115.312c63.59,0,115.312-51.733,115.312-115.312 S1196.544,2384.688,1132.954,2384.688z"></path></g></g></g><g><path fill="#fff" d="M1972.733,1972.736l-316.357-316.357L1972.733,1972.736z"></path><path fill="#491775" d="M1972.728,2006.559c-8.653,0-17.307-3.303-23.912-9.908l-316.344-316.355 c-13.211-13.211-13.211-34.625,0-47.825c13.211-13.211,34.613-13.211,47.825,0l316.344,316.355 c13.211,13.211,13.211,34.625,0,47.825C1990.034,2003.257,1981.381,2006.559,1972.728,2006.559z"></path><g><circle cx="1533.348" cy="1533.351" r="149.132" fill="#ff8e9d"></circle><path fill="#491775" d="M1533.343,1716.22c-46.856,0-93.69-17.835-129.36-53.505 c-71.341-71.33-71.341-187.402,0-258.732c71.341-71.341,187.38-71.341,258.72,0c71.341,71.33,71.341,187.402,0,258.732 C1627.033,1698.385,1580.199,1716.22,1533.343,1716.22z M1533.343,1418.097c-29.527,0-59.054,11.23-81.536,33.711 c-44.962,44.962-44.962,118.12,0,163.082c44.962,44.962,118.109,44.962,163.071,0s44.962-118.12,0-163.082 C1592.397,1429.327,1562.87,1418.097,1533.343,1418.097z"></path></g><g><path fill="#fff" d="M3027.257,3027.261l316.357,316.357L3027.257,3027.261z"></path><path fill="#491775" d="M3343.616,3377.437c-8.653,0-17.307-3.303-23.912-9.908l-316.366-316.365 c-13.211-13.211-13.211-34.614,0-47.825c13.211-13.211,34.614-13.211,47.825,0l316.365,316.366 c13.211,13.211,13.211,34.614,0,47.825C3360.923,3374.134,3352.269,3377.437,3343.616,3377.437z"></path><g><circle cx="3466.642" cy="3466.646" r="149.132" fill="#31d3f5"></circle><path fill="#491775" d="M3466.635,3649.523c-46.834,0-93.69-17.835-129.36-53.506 c-71.341-71.341-71.341-187.402,0-258.742c71.363-71.341,187.424-71.341,258.742,0c71.341,71.341,71.341,187.402,0,258.742 C3560.347,3631.688,3513.491,3649.523,3466.635,3649.523z M3466.635,3351.389c-29.527,0-59.054,11.229-81.535,33.711 c-44.962,44.962-44.962,118.131,0,163.093c44.962,44.962,118.131,44.94,163.093,0c44.962-44.962,44.962-118.131,0-163.093 C3525.711,3362.618,3496.184,3351.389,3466.635,3351.389z"></path></g></g><g><path fill="#fff" d="M3027.257,1972.736l316.357-316.357L3027.257,1972.736z"></path><path fill="#491775" d="M3027.25,2006.559c-8.653,0-17.307-3.303-23.912-9.908c-13.211-13.211-13.211-34.625,0-47.825 l316.366-316.355c13.211-13.211,34.614-13.211,47.825,0c13.211,13.211,13.211,34.625,0,47.825l-316.365,316.355 C3044.557,2003.257,3035.904,2006.559,3027.25,2006.559z"></path><g><circle cx="3466.642" cy="1533.351" r="149.132" fill="#31d3f5"></circle><path fill="#491775" d="M3466.635,1716.22c-46.834,0-93.69-17.835-129.36-53.505 c-71.341-71.33-71.341-187.402,0-258.732c71.363-71.363,187.424-71.319,258.742,0c71.341,71.33,71.341,187.402,0,258.732 C3560.347,1698.385,3513.491,1716.22,3466.635,1716.22z M3466.635,1418.086c-29.527,0-59.054,11.241-81.535,33.722 c-44.962,44.962-44.962,118.12,0,163.082s118.131,44.94,163.093,0c44.962-44.962,44.962-118.12,0-163.082 C3525.711,1429.327,3496.184,1418.086,3466.635,1418.086z"></path></g><g><path fill="#fff" d="M1972.733,3027.261l-316.357,316.357L1972.733,3027.261z"></path><path fill="#491775" d="M1656.384,3377.437c-8.653,0-17.307-3.303-23.912-9.908c-13.211-13.211-13.211-34.614,0-47.825 l316.344-316.366c13.211-13.211,34.613-13.211,47.825,0c13.211,13.211,13.211,34.614,0,47.825l-316.344,316.365 C1673.691,3374.134,1665.037,3377.437,1656.384,3377.437z"></path><g><circle cx="1533.348" cy="3466.646" r="149.132" fill="#31d3f5"></circle><path fill="#491775" d="M1533.343,3649.523c-46.856,0-93.69-17.835-129.36-53.506 c-71.341-71.341-71.341-187.402,0-258.742s187.38-71.341,258.72,0s71.341,187.402,0,258.742 C1627.033,3631.688,1580.199,3649.523,1533.343,3649.523z M1533.343,3351.389c-29.527,0-59.054,11.229-81.536,33.711 c-44.962,44.962-44.962,118.131,0,163.093c44.962,44.962,118.109,44.962,163.071,0c44.962-44.962,44.962-118.131,0-163.093 C1592.397,3362.618,1562.87,3351.389,1533.343,3351.389z"></path></g></g></g></g><g><path fill="#491775" d="M2499.989,2896.58c-18.672,0-33.821-15.138-33.821-33.821v-486.296 c0-18.683,15.149-33.821,33.821-33.821s33.821,15.138,33.821,33.821v486.296C2533.81,2881.442,2518.661,2896.58,2499.989,2896.58 z"></path><path fill="#491775" d="M2713.725,2896.58h-427.472c-18.672,0-33.821-15.138-33.821-33.821 c0-18.683,15.149-33.821,33.821-33.821h427.472c18.672,0,33.821,15.138,33.821,33.821 C2747.546,2881.442,2732.397,2896.58,2713.725,2896.58z"></path><rect width="788.26" height="498.055" x="2105.865" y="2137.242" fill="#fff"></rect><path fill="#491775" d="M2894.125,2669.115h-788.25c-18.672,0-33.821-15.138-33.821-33.821v-498.053 c0-18.683,15.149-33.821,33.821-33.821h788.25c18.672,0,33.821,15.138,33.821,33.821v498.053 C2927.946,2653.977,2912.797,2669.115,2894.125,2669.115z M2139.696,2601.473h720.608v-430.412h-720.608V2601.473z"></path></g>
</svg>