<svg xmlns="http://www.w3.org/2000/svg" x="0px" y="0px" width="100" height="100" viewBox="0 0 24 24">
<path d="M19.5 17H18v5h1v-2h.5c.828 0 1.5-.672 1.5-1.5S20.328 17 19.5 17zM19.5 19H19v-1h.5c.276 0 .5.224.5.5S19.776 19 19.5 19zM22 17H23V22H22zM15.938 22H17l-1.353-5h-1.301L13 22h1.052l.258-1h1.368L15.938 22zM14.568 20l.425-1.647L15.42 20H14.568z"></path><path fill="none" stroke="#000" stroke-miterlimit="10" stroke-width="2" d="M12,15c-1.654,0-3-1.346-3-3s1.346-3,3-3 s3,1.346,3,3S13.654,15,12,15z"></path><path d="M11,18.381L10.926,18l-1.043-0.394c-0.623-0.235-1.189-0.56-1.684-0.966l-0.864-0.708l-1.92,0.662l-0.685-1.187l1.536-1.336 l-0.178-1.097C6.029,12.607,6,12.288,6,12c0-0.29,0.029-0.607,0.088-0.972l0.178-1.099L4.729,8.593l0.685-1.187l1.92,0.662L8.2,7.36 c0.493-0.406,1.06-0.73,1.684-0.965L10.926,6l0.39-2h1.369l0.39,2l1.043,0.394c0.623,0.235,1.189,0.56,1.684,0.966l0.864,0.708 l1.92-0.662l0.685,1.187l-1.535,1.335l0.176,1.098l0,0.003C17.971,11.393,18,11.71,18,12s-0.029,0.607-0.088,0.972l-0.178,1.098 L18.803,15h3.012l0.012-0.021l-1.94-1.688C19.963,12.82,20,12.398,20,12s-0.037-0.82-0.114-1.292l1.941-1.688l-2.334-4.042 l-2.423,0.834c-0.663-0.544-1.418-0.978-2.245-1.29L14.333,2H9.667L9.176,4.524C8.348,4.836,7.592,5.27,6.931,5.813L4.507,4.979 L2.173,9.021l1.941,1.688C4.037,11.18,4,11.602,4,12c0,0.395,0.037,0.817,0.113,1.292l-1.94,1.688l2.334,4.042l2.423-0.834 c0.663,0.544,1.418,0.978,2.245,1.29L9.667,22H11V18.381z"></path><path d="M11,15h1c-1.657,0-3-1.343-3-3s1.343-3,3-3s3,1.343,3,3s-1.343,3-3,3h8.326l-1.516-1.319l0.089-0.549 C18.967,12.715,19,12.345,19,12c0-0.345-0.033-0.715-0.101-1.132l-0.088-0.55l1.738-1.512l-1.51-2.614L16.867,6.94l-0.432-0.354 c-0.577-0.474-1.238-0.854-1.965-1.128l-0.521-0.197L13.509,3h-3.018l-0.44,2.262L9.53,5.459C8.803,5.733,8.142,6.113,7.565,6.587 L7.133,6.941L4.961,6.193l-1.51,2.614l1.739,1.512l-0.089,0.549C5.033,11.285,5,11.655,5,12c0,0.345,0.033,0.715,0.1,1.133 l0.089,0.549l-1.738,1.512l1.51,2.614l2.172-0.748l0.432,0.354c0.577,0.474,1.238,0.854,1.965,1.128l0.521,0.197L10.491,21H11V15z" opacity=".3"></path>
</svg>